<svg width="44" height="44" viewBox="0 0 44 44" fill="none" xmlns="http://www.w3.org/2000/svg">
<g clip-path="url(#clip0_2709_1390)">
<path d="M3.66669 40.3335C3.66669 36.4437 5.21192 32.7131 7.96245 29.9626C10.713 27.2121 14.4435 25.6668 18.3334 25.6668C22.2232 25.6668 25.9537 27.2121 28.7043 29.9626C31.4548 32.7131 33 36.4437 33 40.3335H29.3334C29.3334 37.4161 28.1744 34.6182 26.1115 32.5553C24.0486 30.4924 21.2507 29.3335 18.3334 29.3335C15.416 29.3335 12.6181 30.4924 10.5552 32.5553C8.49228 34.6182 7.33335 37.4161 7.33335 40.3335H3.66669ZM18.3334 23.8335C12.2559 23.8335 7.33335 18.911 7.33335 12.8335C7.33335 6.756 12.2559 1.8335 18.3334 1.8335C24.4109 1.8335 29.3334 6.756 29.3334 12.8335C29.3334 18.911 24.4109 23.8335 18.3334 23.8335ZM18.3334 20.1668C22.385 20.1668 25.6667 16.8852 25.6667 12.8335C25.6667 8.78183 22.385 5.50016 18.3334 5.50016C14.2817 5.50016 11 8.78183 11 12.8335C11 16.8852 14.2817 20.1668 18.3334 20.1668ZM33.5207 26.9557C36.0971 28.116 38.2837 29.9958 39.8174 32.369C41.3512 34.7422 42.167 37.5078 42.1667 40.3335H38.5C38.5004 38.2141 37.8887 36.1397 36.7383 34.3597C35.588 32.5797 33.948 31.1699 32.0155 30.2997L33.5189 26.9557H33.5207ZM32.2594 6.25733C34.1065 7.01871 35.6858 8.31165 36.7969 9.97209C37.908 11.6325 38.5008 13.5856 38.5 15.5835C38.5008 18.0994 37.5608 20.5247 35.8647 22.383C34.1686 24.2413 31.8389 25.3982 29.3334 25.6265V21.936C30.6917 21.7414 31.952 21.1165 32.9291 20.153C33.9062 19.1895 34.5486 17.9381 34.7621 16.5825C34.9757 15.227 34.749 13.8387 34.1154 12.6215C33.4818 11.4042 32.4747 10.4222 31.2419 9.8195L32.2594 6.25733V6.25733Z" fill="#FCFCFC"/>
</g>
<defs>
<clipPath id="clip0_2709_1390">
<rect width="44" height="44" fill="white"/>
</clipPath>
</defs>
</svg>
